<?xml version="1.0" encoding="utf-8"?>
<!-- Generator: Adobe Illustrator 19.2.0, SVG Export Plug-In . SVG Version: 6.00 Build 0)  -->
<svg version="1.1" id="Layer_1" xmlns="http://www.w3.org/2000/svg" xmlns:xlink="http://www.w3.org/1999/xlink" x="0px" y="0px"
	 viewBox="0 0 46 46" style="enable-background:new 0 0 46 46;" xml:space="preserve">
<style type="text/css">
	.st0{fill:#FFFFFF;}
	.st1{fill:#E4A612;}
	.st2{fill:#3C2525;}
	.st3{fill:#E7A62F;}
	.st4{fill:none;stroke:#FFFFFF;stroke-miterlimit:10;}
	.st5{fill:none;stroke:#FFFFFF;stroke-width:2;stroke-miterlimit:10;}
	.st6{fill:#E7A62F;stroke:#FFFFFF;stroke-miterlimit:10;}
	.st7{fill:#011023;}
	.st8{fill:none;stroke:#011023;stroke-miterlimit:10;}
	.st9{fill:none;stroke:#011023;stroke-width:0.5889;stroke-miterlimit:10;}
	.st10{fill:none;stroke:#011023;stroke-width:0.7158;stroke-miterlimit:10;}
	.st11{fill:none;stroke:#011023;stroke-width:1.4315;stroke-miterlimit:10;}
	.st12{fill:#E8A72F;}
	.st13{fill:#E4E4E7;}
	.st14{fill:none;stroke:#011023;stroke-width:0.5333;stroke-miterlimit:10;}
	.st15{fill:none;stroke:#000000;stroke-miterlimit:10;}
	.st16{fill:none;stroke:#E8A72F;stroke-miterlimit:10;}
</style>
<g>
	<path class="st7" d="M23,4.6c6,0,6.7,0,9.1,0.1c2.2,0.1,3.4,0.5,4.2,0.8c1.1,0.4,1.8,0.9,2.6,1.7c0.8,0.8,1.3,1.5,1.7,2.6
		c0.3,0.8,0.7,2,0.8,4.2c0.1,2.4,0.1,3.1,0.1,9.1s0,6.7-0.1,9.1c-0.1,2.2-0.5,3.4-0.8,4.2c-0.4,1.1-0.9,1.8-1.7,2.6
		c-0.8,0.8-1.5,1.3-2.6,1.7c-0.8,0.3-2,0.7-4.2,0.8c-2.4,0.1-3.1,0.1-9.1,0.1s-6.7,0-9.1-0.1c-2.2-0.1-3.4-0.5-4.2-0.8
		c-1.1-0.4-1.8-0.9-2.6-1.7c-0.8-0.8-1.3-1.5-1.7-2.6c-0.3-0.8-0.7-2-0.8-4.2C4.6,29.7,4.6,29,4.6,23s0-6.7,0.1-9.1
		c0.1-2.2,0.5-3.4,0.8-4.2c0.4-1.1,0.9-1.8,1.7-2.6c0.8-0.8,1.5-1.3,2.6-1.7c0.8-0.3,2-0.7,4.2-0.8C16.3,4.6,17,4.6,23,4.6 M23,0.5
		c-6.1,0-6.9,0-9.3,0.1c-2.4,0.1-4,0.5-5.5,1C6.8,2.3,5.5,3,4.3,4.3c-1.3,1.3-2,2.5-2.6,4c-0.6,1.4-0.9,3.1-1,5.5
		c-0.1,2.4-0.1,3.2-0.1,9.3c0,6.1,0,6.9,0.1,9.3c0.1,2.4,0.5,4,1,5.5c0.6,1.5,1.3,2.7,2.6,4c1.3,1.3,2.5,2,4,2.6
		c1.4,0.6,3.1,0.9,5.5,1c2.4,0.1,3.2,0.1,9.3,0.1s6.9,0,9.3-0.1c2.4-0.1,4-0.5,5.5-1c1.5-0.6,2.7-1.3,4-2.6c1.3-1.3,2-2.5,2.6-4
		c0.6-1.4,0.9-3.1,1-5.5c0.1-2.4,0.1-3.2,0.1-9.3s0-6.9-0.1-9.3c-0.1-2.4-0.5-4-1-5.5c-0.6-1.5-1.3-2.7-2.6-4c-1.3-1.3-2.5-2-4-2.6
		c-1.4-0.6-3.1-0.9-5.5-1C29.9,0.5,29.1,0.5,23,0.5L23,0.5z"/>
	<path class="st7" d="M23,11.4c-6.4,0-11.6,5.2-11.6,11.6S16.6,34.6,23,34.6S34.6,29.4,34.6,23S29.4,11.4,23,11.4z M23,30.5
		c-4.1,0-7.5-3.4-7.5-7.5c0-4.1,3.4-7.5,7.5-7.5c4.1,0,7.5,3.4,7.5,7.5C30.5,27.1,27.1,30.5,23,30.5z"/>
	<circle class="st7" cx="35" cy="11" r="2.7"/>
</g>
</svg>
