<?xml version="1.0" encoding="utf-8"?>
<!-- Generator: Adobe Illustrator 19.2.0, SVG Export Plug-In . SVG Version: 6.00 Build 0)  -->
<svg version="1.1" id="Layer_1" xmlns="http://www.w3.org/2000/svg" xmlns:xlink="http://www.w3.org/1999/xlink" x="0px" y="0px"
	 viewBox="0 0 24 24" style="enable-background:new 0 0 24 24;" xml:space="preserve">
<style type="text/css">
	.st0{fill:#FFFFFF;}
	.st1{fill:#E4A612;}
	.st2{fill:#3C2525;}
	.st3{fill:#E7A62F;}
	.st4{fill:none;stroke:#FFFFFF;stroke-miterlimit:10;}
	.st5{fill:none;stroke:#FFFFFF;stroke-width:2;stroke-miterlimit:10;}
	.st6{fill:#E7A62F;stroke:#FFFFFF;stroke-miterlimit:10;}
	.st7{fill:#011023;}
	.st8{fill:none;stroke:#011023;stroke-miterlimit:10;}
	.st9{fill:none;stroke:#011023;stroke-width:0.5889;stroke-miterlimit:10;}
	.st10{fill:none;stroke:#011023;stroke-width:0.7158;stroke-miterlimit:10;}
	.st11{fill:none;stroke:#011023;stroke-width:1.4315;stroke-miterlimit:10;}
	.st12{fill:#E8A72F;}
	.st13{fill:#E4E4E7;}
	.st14{fill:none;stroke:#011023;stroke-width:0.5333;stroke-miterlimit:10;}
	.st15{fill:none;stroke:#000000;stroke-miterlimit:10;}
	.st16{fill:none;stroke:#E8A72F;stroke-miterlimit:10;}
</style>
<g>
	<g>
		<path class="st0" d="M23.5,23.5h-23V23c0-4,2.2-7.7,5.8-9.6l0.3-0.2l0.3,0.2c1.4,1.3,3.2,2,5.1,2s3.7-0.7,5.1-2l0.3-0.2l0.3,0.2
			c3.6,2,5.8,5.7,5.8,9.6V23.5z M1.5,22.5h21c-0.2-3.3-2-6.3-5-8.1c-1.5,1.3-3.4,2-5.5,2s-4-0.7-5.5-2C3.6,16.2,1.7,19.2,1.5,22.5z"
			/>
	</g>
	<g>
		<path class="st0" d="M17.8,14.2l-0.7-0.7c1.4-1.3,2.2-3.1,2.2-5c0-3.8-3.3-7-7.3-7s-7.3,3.1-7.3,7c0,1.9,0.8,3.6,2.2,5l-0.7,0.7
			c-1.6-1.5-2.5-3.5-2.5-5.7c0-4.4,3.7-8,8.3-8s8.3,3.6,8.3,8C20.3,10.6,19.4,12.6,17.8,14.2z"/>
	</g>
</g>
</svg>
