<?xml version="1.0" encoding="utf-8"?>
<!-- Generator: Adobe Illustrator 19.2.0, SVG Export Plug-In . SVG Version: 6.00 Build 0)  -->
<svg version="1.1" id="Layer_1" xmlns="http://www.w3.org/2000/svg" xmlns:xlink="http://www.w3.org/1999/xlink" x="0px" y="0px"
	 viewBox="0 0 15 15" style="enable-background:new 0 0 15 15;" xml:space="preserve">
<style type="text/css">
	.st0{fill:#FFFFFF;}
	.st1{fill:#E4A612;}
	.st2{fill:#3C2525;}
	.st3{fill:#E7A62F;}
	.st4{fill:none;stroke:#FFFFFF;stroke-miterlimit:10;}
	.st5{fill:none;stroke:#FFFFFF;stroke-width:2;stroke-miterlimit:10;}
	.st6{fill:#E7A62F;stroke:#FFFFFF;stroke-miterlimit:10;}
	.st7{fill:#011023;}
	.st8{fill:none;stroke:#011023;stroke-miterlimit:10;}
	.st9{fill:none;stroke:#011023;stroke-width:0.5889;stroke-miterlimit:10;}
	.st10{fill:none;stroke:#011023;stroke-width:0.7158;stroke-miterlimit:10;}
	.st11{fill:none;stroke:#011023;stroke-width:1.4315;stroke-miterlimit:10;}
	.st12{fill:#E8A72F;}
	.st13{fill:#E4E4E7;}
	.st14{fill:none;stroke:#011023;stroke-width:0.5333;stroke-miterlimit:10;}
	.st15{fill:none;stroke:#000000;stroke-miterlimit:10;}
	.st16{fill:none;stroke:#E8A72F;stroke-miterlimit:10;}
</style>
<path class="st7" d="M14.3,11.6l-2.2-2.2c-0.4-0.4-1.2-0.4-1.6,0l-1.1,1.1c-0.1,0-0.1-0.1-0.2-0.1C8.5,10,7.5,9.5,6.5,8.5
	c-1-1-1.5-2-1.9-2.7c0-0.1-0.1-0.1-0.1-0.2l0.7-0.7l0.4-0.4C6,4.1,6,3.4,5.6,2.9L3.4,0.8C3,0.3,2.3,0.3,1.8,0.8L1.2,1.4l0,0
	C1,1.7,0.8,2,0.7,2.3C0.6,2.6,0.5,2.9,0.5,3.2c-0.3,2.4,0.8,4.6,3.8,7.5c4.1,4.1,7.4,3.8,7.5,3.8c0.3,0,0.6-0.1,0.9-0.2
	c0.3-0.1,0.6-0.3,0.9-0.5l0,0l0.6-0.6C14.7,12.8,14.7,12,14.3,11.6L14.3,11.6z"/>
</svg>
