<?xml version="1.0" encoding="utf-8"?>
<!-- Generator: Adobe Illustrator 19.2.0, SVG Export Plug-In . SVG Version: 6.00 Build 0)  -->
<svg version="1.1" id="Layer_1" xmlns="http://www.w3.org/2000/svg" xmlns:xlink="http://www.w3.org/1999/xlink" x="0px" y="0px"
	 viewBox="0 0 205 60" style="enable-background:new 0 0 205 60;" xml:space="preserve">
<style type="text/css">
	.st0{fill:#FFFFFF;}
	.st1{fill:#E4A612;}
	.st2{fill:#3C2525;}
	.st3{fill:#E7A62F;}
	.st4{fill:none;stroke:#FFFFFF;stroke-miterlimit:10;}
	.st5{fill:none;stroke:#FFFFFF;stroke-width:2;stroke-miterlimit:10;}
	.st6{fill:#E7A62F;stroke:#FFFFFF;stroke-miterlimit:10;}
	.st7{fill:#011023;}
	.st8{fill:none;stroke:#011023;stroke-miterlimit:10;}
	.st9{fill:none;stroke:#011023;stroke-width:0.5889;stroke-miterlimit:10;}
	.st10{fill:none;stroke:#011023;stroke-width:0.7158;stroke-miterlimit:10;}
	.st11{fill:none;stroke:#011023;stroke-width:1.4315;stroke-miterlimit:10;}
	.st12{fill:#E8A72F;}
	.st13{fill:#E4E4E7;}
	.st14{fill:none;stroke:#011023;stroke-width:0.5333;stroke-miterlimit:10;}
	.st15{fill:none;stroke:#000000;stroke-miterlimit:10;}
	.st16{fill:none;stroke:#E8A72F;stroke-miterlimit:10;}
</style>
<g>
	<g>
		<g>
			<path class="st2" d="M6.5,53.8l2.3,0.1c-0.1,1.2-0.6,2.1-1.2,2.7c-0.7,0.6-1.5,1-2.6,1c-1.1,0-2-0.4-2.7-1.1
				c-0.7-0.7-1.1-1.6-1.1-2.7c0-1.1,0.4-2,1.1-2.7C3,50.3,3.9,49.9,5,49.9c1.1,0,2,0.4,2.7,1.1c0.5,0.5,0.8,1.2,1.1,2.1l-2.3,0.2
				C6.1,52.4,5.7,52,4.9,52c-0.5,0-0.8,0.2-1.1,0.5c-0.3,0.3-0.4,0.7-0.4,1.2c0,0.5,0.1,0.9,0.4,1.2c0.3,0.3,0.7,0.5,1.1,0.5
				c0.5,0,0.8-0.1,1.1-0.4C6.3,54.7,6.4,54.3,6.5,53.8z"/>
			<path class="st2" d="M13.6,55.3v2.1c-0.2,0-0.3,0-0.4,0c-0.8,0-1.5-0.3-2-0.8c-0.5-0.5-0.8-1.2-0.8-2c0-0.8,0.3-1.4,0.8-2
				c0.5-0.5,1.2-0.8,2-0.8c0.9,0,1.5,0.3,2,0.8c0.5,0.5,0.7,1.2,0.7,2.1v2.6h-2v-2.5c0-0.3-0.1-0.5-0.2-0.7
				c-0.1-0.2-0.3-0.2-0.5-0.2c-0.2,0-0.4,0.1-0.5,0.2c-0.2,0.2-0.2,0.3-0.2,0.5c0,0.2,0.1,0.4,0.2,0.5c0.1,0.1,0.3,0.2,0.5,0.2
				C13.3,55.5,13.5,55.4,13.6,55.3z"/>
			<path class="st2" d="M20.2,50.1v7.2h-2v-7.2H20.2z"/>
			<path class="st2" d="M24.4,52v5.3h-2V52H24.4z M23.4,49.7c0.3,0,0.5,0.1,0.7,0.3c0.2,0.2,0.3,0.4,0.3,0.7c0,0.3-0.1,0.5-0.3,0.7
				c-0.2,0.2-0.4,0.3-0.7,0.3c-0.3,0-0.5-0.1-0.7-0.3c-0.2-0.2-0.3-0.4-0.3-0.7c0-0.3,0.1-0.5,0.3-0.7
				C22.9,49.8,23.1,49.7,23.4,49.7z"/>
			<path class="st2" d="M29.9,50.1h2v4.4c0,0.8-0.2,1.5-0.6,2c-0.2,0.3-0.6,0.5-0.9,0.7c-0.4,0.2-0.8,0.3-1.2,0.3
				c-0.8,0-1.5-0.3-2-0.8c-0.5-0.5-0.8-1.2-0.8-2c0-0.7,0.3-1.4,0.8-1.9c0.5-0.5,1.2-0.8,1.9-0.8c0.1,0,0.3,0,0.5,0v2.2
				c-0.2-0.1-0.3-0.2-0.5-0.2c-0.2,0-0.4,0.1-0.5,0.2c-0.1,0.1-0.2,0.3-0.2,0.5c0,0.2,0.1,0.4,0.2,0.5c0.2,0.1,0.3,0.2,0.5,0.2
				c0.5,0,0.8-0.4,0.8-1.1V50.1z"/>
			<path class="st2" d="M37,55.3v2.1c-0.2,0-0.3,0-0.4,0c-0.8,0-1.5-0.3-2-0.8c-0.5-0.5-0.8-1.2-0.8-2c0-0.8,0.3-1.4,0.8-2
				c0.5-0.5,1.2-0.8,2-0.8c0.9,0,1.5,0.3,2,0.8c0.5,0.5,0.7,1.2,0.7,2.1v2.6h-2v-2.5c0-0.3-0.1-0.5-0.2-0.7
				c-0.1-0.2-0.3-0.2-0.5-0.2c-0.2,0-0.4,0.1-0.5,0.2c-0.2,0.2-0.2,0.3-0.2,0.5c0,0.2,0.1,0.4,0.2,0.5c0.1,0.1,0.3,0.2,0.5,0.2
				C36.6,55.5,36.8,55.4,37,55.3z"/>
			<path class="st2" d="M44.7,50.1h2v4.4c0,0.8-0.2,1.5-0.6,2c-0.2,0.3-0.6,0.5-0.9,0.7c-0.4,0.2-0.8,0.3-1.2,0.3
				c-0.8,0-1.5-0.3-2-0.8c-0.5-0.5-0.8-1.2-0.8-2c0-0.7,0.3-1.4,0.8-1.9c0.5-0.5,1.2-0.8,1.9-0.8c0.1,0,0.3,0,0.5,0v2.2
				c-0.2-0.1-0.3-0.2-0.5-0.2c-0.2,0-0.4,0.1-0.5,0.2c-0.1,0.1-0.2,0.3-0.2,0.5c0,0.2,0.1,0.4,0.2,0.5c0.2,0.1,0.3,0.2,0.5,0.2
				c0.5,0,0.8-0.4,0.8-1.1V50.1z"/>
			<path class="st2" d="M57.9,55h-3c0-0.2-0.1-0.3-0.1-0.4c0-0.2,0-0.4,0.1-0.5h1c-0.1-0.4-0.3-0.6-0.7-0.6c-0.2,0-0.4,0.1-0.6,0.3
				c-0.2,0.2-0.2,0.5-0.2,0.8c0,0.3,0.1,0.6,0.2,0.8c0.2,0.2,0.3,0.3,0.6,0.3c0.2,0,0.4-0.1,0.6-0.3l1.1,1.4
				c-0.5,0.4-1.1,0.6-1.8,0.6c-0.8,0-1.4-0.3-2-0.8c-0.5-0.5-0.8-1.2-0.8-2c0-0.8,0.3-1.4,0.8-2c0.5-0.5,1.2-0.8,2-0.8
				c0.8,0,1.4,0.3,1.9,0.8c0.5,0.5,0.8,1.2,0.8,1.9C57.9,54.7,57.9,54.8,57.9,55z"/>
			<path class="st2" d="M64.5,57.3h-2v-3c0-0.3-0.1-0.5-0.4-0.5c-0.2,0-0.4,0.2-0.4,0.5v3h-2v-3c0-0.7,0.2-1.3,0.7-1.7
				c0.5-0.5,1-0.7,1.7-0.7c0.8,0,1.4,0.3,1.8,0.8c0.4,0.4,0.5,1,0.5,1.8V57.3z"/>
			<path class="st2" d="M73.5,55.3v2.1c-0.2,0-0.3,0-0.4,0c-0.8,0-1.5-0.3-2-0.8c-0.5-0.5-0.8-1.2-0.8-2c0-0.8,0.3-1.4,0.8-2
				c0.5-0.5,1.2-0.8,2-0.8c0.9,0,1.5,0.3,2,0.8c0.5,0.5,0.7,1.2,0.7,2.1v2.6h-2v-2.5c0-0.3-0.1-0.5-0.2-0.7
				c-0.1-0.2-0.3-0.2-0.5-0.2c-0.2,0-0.4,0.1-0.5,0.2c-0.2,0.2-0.2,0.3-0.2,0.5c0,0.2,0.1,0.4,0.2,0.5c0.1,0.1,0.3,0.2,0.5,0.2
				C73.2,55.5,73.3,55.4,73.5,55.3z"/>
			<path class="st2" d="M78,52.1h2v3c0,0.3,0.1,0.5,0.4,0.5c0.2,0,0.4-0.1,0.4-0.5v-3h2v3c0,0.7-0.2,1.3-0.7,1.7
				c-0.5,0.5-1,0.7-1.7,0.7c-0.8,0-1.4-0.3-1.8-0.8c-0.4-0.4-0.5-1-0.5-1.8V52.1z"/>
			<path class="st2" d="M86.7,50.1v2h0.9v2.1h-0.9c0,0.4,0.1,0.7,0.2,0.9c0.1,0.2,0.4,0.2,0.7,0.2v2.1c-0.1,0-0.2,0-0.2,0
				c-0.4,0-0.9-0.1-1.3-0.3c-0.4-0.2-0.7-0.5-1-0.8c-0.3-0.5-0.5-1.1-0.5-1.8v-4.3H86.7z"/>
			<path class="st2" d="M92.2,51.9c0.8,0,1.4,0.3,1.9,0.8c0.5,0.5,0.8,1.2,0.8,1.9c0,0.8-0.3,1.4-0.8,2c-0.5,0.5-1.2,0.8-2,0.8
				c-0.8,0-1.4-0.3-2-0.8c-0.5-0.5-0.8-1.2-0.8-1.9c0-0.8,0.3-1.4,0.8-2C90.7,52.2,91.4,51.9,92.2,51.9z M92.2,53.9
				c-0.2,0-0.4,0.1-0.5,0.2c-0.1,0.2-0.2,0.3-0.2,0.6c0,0.2,0.1,0.4,0.2,0.6c0.2,0.2,0.3,0.2,0.5,0.2c0.2,0,0.4-0.1,0.5-0.2
				c0.2-0.2,0.2-0.3,0.2-0.6c0-0.2-0.1-0.4-0.2-0.6C92.6,53.9,92.4,53.9,92.2,53.9z"/>
			<path class="st2" d="M98.7,59.3h-2v-4.4c0-0.8,0.2-1.5,0.6-2c0.2-0.3,0.6-0.5,0.9-0.7c0.4-0.2,0.8-0.3,1.2-0.3
				c0.8,0,1.5,0.3,2,0.8c0.5,0.5,0.8,1.2,0.8,2c0,0.8-0.3,1.4-0.8,1.9c-0.5,0.5-1.2,0.8-1.9,0.8c-0.1,0-0.3,0-0.5,0v-2.2
				c0.2,0.1,0.3,0.2,0.5,0.2c0.2,0,0.4-0.1,0.5-0.2c0.1-0.2,0.2-0.3,0.2-0.5c0-0.2-0.1-0.4-0.2-0.5c-0.2-0.1-0.3-0.2-0.5-0.2
				c-0.5,0-0.8,0.4-0.8,1.1V59.3z"/>
			<path class="st2" d="M107.2,55.3v2.1c-0.2,0-0.3,0-0.4,0c-0.8,0-1.5-0.3-2-0.8c-0.5-0.5-0.8-1.2-0.8-2c0-0.8,0.3-1.4,0.8-2
				c0.5-0.5,1.2-0.8,2-0.8c0.9,0,1.5,0.3,2,0.8c0.5,0.5,0.7,1.2,0.7,2.1v2.6h-2v-2.5c0-0.3-0.1-0.5-0.2-0.7
				c-0.1-0.2-0.3-0.2-0.5-0.2c-0.2,0-0.4,0.1-0.5,0.2c-0.2,0.2-0.2,0.3-0.2,0.5c0,0.2,0.1,0.4,0.2,0.5c0.1,0.1,0.3,0.2,0.5,0.2
				C106.9,55.5,107,55.4,107.2,55.3z"/>
			<path class="st2" d="M114.6,52v2.1c-0.1-0.1-0.3-0.1-0.4-0.1c-0.4,0-0.5,0.3-0.5,0.8v2.5h-2v-2.9c0-0.8,0.2-1.4,0.6-1.8
				c0.4-0.5,1-0.7,1.7-0.7C114.2,51.9,114.4,51.9,114.6,52z"/>
			<path class="st2" d="M118.1,50.1v2h0.9v2.1h-0.9c0,0.4,0.1,0.7,0.2,0.9c0.1,0.2,0.4,0.2,0.7,0.2v2.1c-0.1,0-0.2,0-0.2,0
				c-0.4,0-0.9-0.1-1.3-0.3c-0.4-0.2-0.7-0.5-1-0.8c-0.3-0.5-0.5-1.1-0.5-1.8v-4.3H118.1z"/>
			<path class="st2" d="M126.2,55h-3c0-0.2-0.1-0.3-0.1-0.4c0-0.2,0-0.4,0.1-0.5h1c-0.1-0.4-0.3-0.6-0.7-0.6c-0.2,0-0.4,0.1-0.6,0.3
				c-0.2,0.2-0.2,0.5-0.2,0.8c0,0.3,0.1,0.6,0.2,0.8c0.2,0.2,0.3,0.3,0.6,0.3c0.2,0,0.4-0.1,0.6-0.3l1.1,1.4
				c-0.5,0.4-1.1,0.6-1.8,0.6c-0.8,0-1.4-0.3-2-0.8c-0.5-0.5-0.8-1.2-0.8-2c0-0.8,0.3-1.4,0.8-2c0.5-0.5,1.2-0.8,2-0.8
				c0.8,0,1.4,0.3,1.9,0.8c0.5,0.5,0.8,1.2,0.8,1.9C126.2,54.7,126.2,54.8,126.2,55z"/>
			<path class="st2" d="M131.4,52.1v2.1c-0.3,0-0.5,0.1-0.6,0.2c-0.1,0.1-0.2,0.3-0.2,0.6c-0.1,1-0.5,1.7-1.2,2.2
				c-0.4,0.2-0.9,0.3-1.6,0.3h-0.3v-2.1h0.1c0.3,0,0.5-0.1,0.7-0.2c0.1-0.1,0.2-0.4,0.2-0.7c0-0.5,0.1-0.9,0.2-1.1
				c0.1-0.2,0.2-0.4,0.4-0.7c0.4-0.4,0.9-0.6,1.6-0.6H131.4z"/>
			<path class="st2" d="M142.2,55h-3c0-0.2-0.1-0.3-0.1-0.4c0-0.2,0-0.4,0.1-0.5h1c-0.1-0.4-0.3-0.6-0.7-0.6c-0.2,0-0.4,0.1-0.6,0.3
				c-0.2,0.2-0.2,0.5-0.2,0.8c0,0.3,0.1,0.6,0.2,0.8c0.2,0.2,0.3,0.3,0.6,0.3c0.2,0,0.4-0.1,0.6-0.3l1.1,1.4
				c-0.5,0.4-1.1,0.6-1.8,0.6c-0.8,0-1.4-0.3-2-0.8c-0.5-0.5-0.8-1.2-0.8-2c0-0.8,0.3-1.4,0.8-2c0.5-0.5,1.2-0.8,2-0.8
				c0.8,0,1.4,0.3,1.9,0.8c0.5,0.5,0.8,1.2,0.8,1.9C142.2,54.7,142.2,54.8,142.2,55z"/>
			<path class="st2" d="M147.4,52.1v2.1c-0.3,0-0.5,0.1-0.6,0.2c-0.1,0.1-0.2,0.3-0.2,0.6c-0.1,1-0.5,1.7-1.2,2.2
				c-0.4,0.2-0.9,0.3-1.6,0.3h-0.3v-2.1h0.1c0.3,0,0.5-0.1,0.7-0.2c0.1-0.1,0.2-0.4,0.2-0.7c0-0.5,0.1-0.9,0.2-1.1
				c0.1-0.2,0.2-0.4,0.4-0.7c0.4-0.4,0.9-0.6,1.6-0.6H147.4z"/>
			<path class="st2" d="M150.9,50.1v2h0.9v2.1h-0.9c0,0.4,0.1,0.7,0.2,0.9c0.1,0.2,0.4,0.2,0.7,0.2v2.1c-0.1,0-0.2,0-0.2,0
				c-0.4,0-0.9-0.1-1.3-0.3c-0.4-0.2-0.7-0.5-1-0.8c-0.3-0.5-0.5-1.1-0.5-1.8v-4.3H150.9z"/>
			<path class="st2" d="M156.8,55.3v2.1c-0.2,0-0.3,0-0.4,0c-0.8,0-1.5-0.3-2-0.8c-0.5-0.5-0.8-1.2-0.8-2c0-0.8,0.3-1.4,0.8-2
				c0.5-0.5,1.2-0.8,2-0.8c0.9,0,1.5,0.3,2,0.8c0.5,0.5,0.7,1.2,0.7,2.1v2.6h-2v-2.5c0-0.3-0.1-0.5-0.2-0.7
				c-0.1-0.2-0.3-0.2-0.5-0.2c-0.2,0-0.4,0.1-0.5,0.2c-0.2,0.2-0.2,0.3-0.2,0.5c0,0.2,0.1,0.4,0.2,0.5c0.1,0.1,0.3,0.2,0.5,0.2
				C156.5,55.5,156.6,55.4,156.8,55.3z"/>
			<path class="st2" d="M168.6,57.3h-2v-2.9c0-0.2,0-0.4-0.1-0.5c0-0.1-0.1-0.1-0.2-0.1c-0.2,0-0.3,0.2-0.3,0.6v2.9h-2v-2.9
				c0-0.2,0-0.4-0.1-0.5c0-0.1-0.1-0.1-0.3-0.1c-0.2,0-0.3,0.2-0.3,0.6v2.9h-2v-3.3c0-0.6,0.2-1.1,0.6-1.5s0.9-0.6,1.5-0.6
				c0.6,0,1.1,0.2,1.6,0.7c0.5-0.5,1-0.7,1.6-0.7c0.7,0,1.2,0.2,1.6,0.7c0.3,0.4,0.5,0.9,0.5,1.6V57.3z"/>
			<path class="st2" d="M172.7,59.3h-2v-4.4c0-0.8,0.2-1.5,0.6-2c0.2-0.3,0.6-0.5,0.9-0.7c0.4-0.2,0.8-0.3,1.2-0.3
				c0.8,0,1.5,0.3,2,0.8c0.5,0.5,0.8,1.2,0.8,2c0,0.8-0.3,1.4-0.8,1.9c-0.5,0.5-1.2,0.8-1.9,0.8c-0.1,0-0.3,0-0.5,0v-2.2
				c0.2,0.1,0.3,0.2,0.5,0.2c0.2,0,0.4-0.1,0.5-0.2c0.1-0.2,0.2-0.3,0.2-0.5c0-0.2-0.1-0.4-0.2-0.5c-0.2-0.1-0.3-0.2-0.5-0.2
				c-0.5,0-0.8,0.4-0.8,1.1V59.3z"/>
			<path class="st2" d="M181.2,55.3v2.1c-0.2,0-0.3,0-0.4,0c-0.8,0-1.5-0.3-2-0.8c-0.5-0.5-0.8-1.2-0.8-2c0-0.8,0.3-1.4,0.8-2
				c0.5-0.5,1.2-0.8,2-0.8c0.9,0,1.5,0.3,2,0.8c0.5,0.5,0.7,1.2,0.7,2.1v2.6h-2v-2.5c0-0.3-0.1-0.5-0.2-0.7
				c-0.1-0.2-0.3-0.2-0.5-0.2c-0.2,0-0.4,0.1-0.5,0.2c-0.2,0.2-0.2,0.3-0.2,0.5c0,0.2,0.1,0.4,0.2,0.5c0.1,0.1,0.3,0.2,0.5,0.2
				C180.8,55.5,181,55.4,181.2,55.3z"/>
			<path class="st2" d="M189,50.1h2v4.4c0,0.8-0.2,1.5-0.6,2c-0.2,0.3-0.6,0.5-0.9,0.7c-0.4,0.2-0.8,0.3-1.2,0.3
				c-0.8,0-1.5-0.3-2-0.8c-0.5-0.5-0.8-1.2-0.8-2c0-0.7,0.3-1.4,0.8-1.9c0.5-0.5,1.2-0.8,1.9-0.8c0.1,0,0.3,0,0.5,0v2.2
				c-0.2-0.1-0.3-0.2-0.5-0.2c-0.2,0-0.4,0.1-0.5,0.2c-0.1,0.1-0.2,0.3-0.2,0.5c0,0.2,0.1,0.4,0.2,0.5c0.2,0.1,0.3,0.2,0.5,0.2
				c0.5,0,0.8-0.4,0.8-1.1V50.1z"/>
			<path class="st2" d="M196,55.3v2.1c-0.2,0-0.3,0-0.4,0c-0.8,0-1.5-0.3-2-0.8c-0.5-0.5-0.8-1.2-0.8-2c0-0.8,0.3-1.4,0.8-2
				c0.5-0.5,1.2-0.8,2-0.8c0.9,0,1.5,0.3,2,0.8c0.5,0.5,0.7,1.2,0.7,2.1v2.6h-2v-2.5c0-0.3-0.1-0.5-0.2-0.7
				c-0.1-0.2-0.3-0.2-0.5-0.2c-0.2,0-0.4,0.1-0.5,0.2c-0.2,0.2-0.2,0.3-0.2,0.5c0,0.2,0.1,0.4,0.2,0.5c0.1,0.1,0.3,0.2,0.5,0.2
				C195.7,55.5,195.9,55.4,196,55.3z"/>
			<path class="st2" d="M203.9,52.1v2.1c-0.3,0-0.5,0.1-0.6,0.2c-0.1,0.1-0.2,0.3-0.2,0.6c-0.1,1-0.5,1.7-1.2,2.2
				c-0.4,0.2-0.9,0.3-1.6,0.3H200v-2.1h0.1c0.3,0,0.5-0.1,0.7-0.2c0.1-0.1,0.2-0.4,0.2-0.7c0-0.5,0.1-0.9,0.2-1.1
				c0.1-0.2,0.2-0.4,0.4-0.7c0.4-0.4,0.9-0.6,1.6-0.6H203.9z"/>
		</g>
	</g>
	<path class="st1" d="M196.5,23.4c0,12.2-7.5,22.1-16.9,22.1H26.3c-9.3,0-16.9-9.9-16.9-22.1l0,0c0-12.2,7.5-22.1,16.9-22.1h153.4
		C188.9,1.2,196.5,11.2,196.5,23.4L196.5,23.4z"/>
	<path class="st2" d="M196.2,18.7c0,9.9-7.3,17.9-16.3,17.9h-148c-9,0-16.3-8-16.3-17.9l0,0c0-9.9,7.3-17.9,16.3-17.9h148
		C188.9,0.7,196.2,8.8,196.2,18.7L196.2,18.7z"/>
	<g>
		<path class="st0" d="M23.6,23.6l-1.5,4.7c0,0,5.5,0.1,6,0c1.5-0.3,7.1-2.3,9.5-6.6c2.9-5.2,4.9-6.1,4.9-6.1s1.8-0.8,3.7-0.5
			l1.7-4.9c0,0-5.7-1.1-9.1,1.7c-2.3,1.9-3.3,4-6.2,7.9C29.9,23.6,27,23.7,23.6,23.6z"/>
		<path class="st0" d="M113.4,23.6l-1.5,4.7c0,0,5.5,0.2,6,0c1.3-0.3,7.1-2.3,9.5-6.6c2.9-5.2,4.9-6.1,4.9-6.1s1.8-0.8,3.7-0.5
			l1.6-4.9c0,0-5.7-1.1-9.1,1.7c-2.3,1.9-3.3,4-6.2,7.9C119.6,23.6,116.8,23.7,113.4,23.6z"/>
		<path class="st0" d="M66.8,20.6c0,0,4-10.3-6.8-10.5c-12.7-0.3-19.5,17.5-7.1,18.4c7.7,0.6,10.6-3.8,10.6-3.8L60.3,22
			c0,0-2.5,2.2-4.4,2.2c-4.5,0.1-4.2-3.6-4.2-3.6L66.8,20.6z M58.6,14.4c3.3,0.1,3.4,2.2,3.4,2.2h-8C54,16.7,55.3,14.3,58.6,14.4z"
			/>
		<path class="st0" d="M112,20.6c0,0,4-10.3-6.8-10.5c-12.7-0.3-19.5,17.5-7.1,18.4c7.7,0.6,10.6-3.8,10.6-3.8l-3.1-2.8
			c0,0-2.5,2.2-4.4,2.2c-4.5,0.1-4.2-3.6-4.2-3.6L112,20.6z M103.8,14.4c3.3,0.1,3.4,2.2,3.4,2.2h-8
			C99.3,16.7,100.5,14.3,103.8,14.4z"/>
		<path class="st0" d="M66.4,28.6H72l3-10c0,0,2.3-4.4,6.6-4.1c4.3,0.3,3,5,3,5l-2.9,9H87l3.1-10c0,0,2.2-7.9-7-8.4
			c-9.2-0.5-12.9,6.6-12.9,6.6L66.4,28.6z"/>
		<path class="st0" d="M148.3,28.5h5.7l3-9.5c0,0,3.1-8.5-7.3-8.7c-10.4-0.2-13,7.9-13,7.9s-4.4,12.2,9.4,10.2l1.6-5.5
			c0,0-7.3,2.3-5.3-4.7c0,0,1.8-3.6,5.6-3.1c3.8,0.4,3,4.2,3,4.2L148.3,28.5z"/>
		<path class="st0" d="M163.3,25.6l-0.9,2.8c0,0,3.3,0.1,3.6,0c0.3-0.1,4.2-1.3,5.7-4c1.7-3.1,2.9-3.6,2.9-3.6s1.1-0.5,2.2-0.3
			l1-2.9c0,0-3.4-0.6-5.4,1c-1.4,1.2-1.9,2.4-3.7,4.7C167.1,25.6,165.3,25.6,163.3,25.6z"/>
		<path class="st0" d="M184.2,28.5h3.4l1.8-5.7c0,0,1.8-5.1-4.4-5.2c-6.2-0.1-7.7,4.7-7.7,4.7s-2.6,7.3,5.6,6.1l1-3.3
			c0,0-4.3,1.4-3.2-2.8c0,0,1.1-2.1,3.4-1.9c2.3,0.3,1.8,2.5,1.8,2.5L184.2,28.5z"/>
		<rect x="172.4" y="27.2" class="st0" width="2.5" height="2.2"/>
	</g>
</g>
</svg>
