<?xml version="1.0" encoding="utf-8"?>
<!-- Generator: Adobe Illustrator 19.2.0, SVG Export Plug-In . SVG Version: 6.00 Build 0)  -->
<svg version="1.1" id="Layer_1" xmlns="http://www.w3.org/2000/svg" xmlns:xlink="http://www.w3.org/1999/xlink" x="0px" y="0px"
	 viewBox="0 0 42 42" style="enable-background:new 0 0 42 42;" xml:space="preserve">
<style type="text/css">
	.st0{fill:#FFFFFF;}
	.st1{fill:#E4A612;}
	.st2{fill:#3C2525;}
	.st3{fill:#E7A62F;}
	.st4{fill:none;stroke:#FFFFFF;stroke-miterlimit:10;}
	.st5{fill:none;stroke:#FFFFFF;stroke-width:2;stroke-miterlimit:10;}
	.st6{fill:#E7A62F;stroke:#FFFFFF;stroke-miterlimit:10;}
	.st7{fill:#011023;}
	.st8{fill:none;stroke:#011023;stroke-miterlimit:10;}
	.st9{fill:none;stroke:#011023;stroke-width:0.5889;stroke-miterlimit:10;}
	.st10{fill:none;stroke:#011023;stroke-width:0.7158;stroke-miterlimit:10;}
	.st11{fill:none;stroke:#011023;stroke-width:1.4315;stroke-miterlimit:10;}
	.st12{fill:#E8A72F;}
	.st13{fill:#E4E4E7;}
	.st14{fill:none;stroke:#011023;stroke-width:0.5333;stroke-miterlimit:10;}
	.st15{fill:none;stroke:#000000;stroke-miterlimit:10;}
	.st16{fill:none;stroke:#E8A72F;stroke-miterlimit:10;}
</style>
<g>
	<g>
		<g>
			<path class="st9" d="M27.5,11.8c-1.7,0-6.5,0-6.5,0s-4.8,0-6.5,0c-1.7,0-4.5,4.7-6.3,8.4v6.1v-0.2v2.7c0,0.8,0.7,1.5,1.5,1.5h2
				c0.8,0,1.5-0.7,1.5-1.5v-1.7h15.7v1.7c0,0.8,0.7,1.5,1.5,1.5h2c0.8,0,1.5-0.7,1.5-1.5v-2.7v0.2v-6.1C32,16.5,29.3,11.8,27.5,11.8
				z"/>
			<path class="st9" d="M32.5,17.5c0.9-1.1,2.4-1.2,3.1-1.2s0.8,0.2,0.8,0.8c0,0.6,0,1,0,1.3S35.8,19,35.5,19s-1.8-0.2-2,0.3"/>
			<path class="st9" d="M9.5,17.5c-0.9-1.1-2.4-1.2-3.1-1.2s-0.8,0.2-0.8,0.8c0,0.6,0,1,0,1.3S6.2,19,6.5,19s1.8-0.2,2,0.3"/>
			<g>
				<path class="st9" d="M9.7,21.2c0,0,0.9-0.1,1.6,0s2.4,1,3.2,2.6c0,0-2.5,0-3.1,0s-1.3-0.3-1.5-0.7C9.7,22.6,9.7,21.2,9.7,21.2z"
					/>
				<path class="st9" d="M32.3,21.2c0,0-0.9-0.1-1.6,0c-0.8,0.1-2.4,1-3.2,2.6c0,0,2.5,0,3.1,0c0.6,0,1.3-0.3,1.5-0.7
					C32.3,22.6,32.3,21.2,32.3,21.2z"/>
			</g>
			<path class="st9" d="M27.8,13.9c-0.2-0.4-0.8-0.4-1.6-0.4s-5.2,0-5.2,0s-4.4,0-5.2,0c-0.8,0-1.3,0-1.6,0.4
				c-0.2,0.4-1.8,2.6-2.5,3.6c0.8,1.5,6.7,1.2,9.3,1.2s8.4,0.2,9.3-1.2C29.6,16.4,28,14.2,27.8,13.9z"/>
		</g>
		<circle class="st9" cx="21" cy="21" r="20.3"/>
	</g>
</g>
</svg>
